<?xml version="1.0" standalone="no"?>
<!DOCTYPE svg PUBLIC "-//W3C//DTD SVG 20010904//EN"
 "http://www.w3.org/TR/2001/REC-SVG-20010904/DTD/svg10.dtd">
<svg version="1.0" xmlns="http://www.w3.org/2000/svg"
 width="886.000000pt" height="886.000000pt" viewBox="0 0 886.000000 886.000000"
 preserveAspectRatio="xMidYMid meet">
<metadata>
Created by potrace 1.16, written by Peter Selinger 2001-2019
</metadata>
<g transform="translate(0.000000,886.000000) scale(0.100000,-0.100000)"
fill="#000000" stroke="none">
<path d="M4090 8854 c-462 -42 -884 -140 -1290 -301 -1416 -559 -2450 -1812
-2729 -3308 -56 -302 -66 -417 -66 -815 0 -398 10 -513 66 -815 335 -1795
1749 -3209 3544 -3544 302 -56 417 -66 815 -66 398 0 513 10 815 66 1795 335
3209 1749 3544 3544 56 302 66 417 66 815 0 398 -10 513 -66 815 -335 1795
-1749 3210 -3544 3544 -280 52 -404 63 -765 66 -190 1 -365 1 -390 -1z m771
-64 c30 -5 104 -14 166 -19 61 -6 133 -17 160 -25 26 -7 93 -22 148 -31 55
-10 116 -23 135 -30 19 -7 69 -20 110 -30 41 -10 113 -31 160 -47 47 -16 117
-38 155 -48 72 -19 361 -136 475 -194 112 -56 263 -138 317 -173 29 -18 63
-38 75 -43 13 -6 70 -44 128 -86 58 -41 128 -90 156 -109 29 -19 58 -40 65
-47 8 -7 70 -58 139 -113 126 -101 433 -398 505 -490 21 -27 59 -73 84 -101
46 -52 113 -140 120 -159 2 -5 20 -30 40 -55 59 -73 196 -278 239 -360 11 -19
40 -72 65 -116 185 -330 347 -779 426 -1179 6 -27 13 -61 16 -75 2 -14 14 -79
24 -145 82 -501 81 -913 -4 -1390 -24 -139 -86 -409 -112 -490 -9 -27 -28 -93
-44 -145 -42 -145 -94 -289 -134 -373 -19 -42 -35 -79 -35 -82 0 -20 -173
-352 -231 -443 -16 -25 -29 -51 -29 -58 0 -6 -7 -14 -15 -18 -8 -3 -15 -12
-15 -19 0 -8 -9 -22 -21 -33 -12 -10 -30 -35 -40 -54 -11 -19 -37 -60 -59 -90
-23 -30 -59 -82 -82 -115 -23 -33 -49 -69 -59 -80 -10 -11 -49 -58 -88 -103
-137 -162 -242 -274 -351 -376 -61 -57 -198 -174 -230 -196 -19 -13 -50 -38
-68 -54 -34 -31 -95 -77 -179 -134 -26 -19 -78 -55 -115 -82 -37 -26 -91 -60
-120 -75 -29 -15 -60 -33 -68 -40 -20 -18 -323 -176 -380 -199 -25 -10 -67
-28 -95 -41 -83 -37 -148 -63 -226 -89 -41 -13 -105 -36 -144 -51 -83 -31 -54
-24 -290 -80 -302 -73 -307 -74 -370 -81 -33 -4 -67 -10 -75 -15 -9 -4 -72
-12 -140 -19 -69 -6 -141 -13 -160 -15 -19 -3 -120 -8 -223 -11 -193 -6 -385
5 -607 33 -69 8 -147 17 -175 20 -27 2 -59 8 -70 14 -11 5 -54 15 -95 23 -164
30 -248 48 -320 71 -139 43 -175 53 -213 60 -20 4 -40 11 -43 16 -2 5 -24 14
-47 20 -23 6 -66 22 -95 35 -29 13 -55 24 -59 24 -15 0 -397 180 -478 226 -16
9 -37 21 -45 25 -23 13 -109 66 -175 108 -33 22 -91 59 -130 82 -38 24 -79 52
-90 62 -11 11 -43 34 -71 52 -28 18 -83 61 -123 96 -40 35 -94 82 -121 104
-176 148 -308 282 -468 474 -166 201 -235 297 -430 601 -38 59 -190 356 -233
455 -100 232 -167 435 -254 775 -27 105 -75 353 -80 413 -2 21 -6 52 -9 70
-16 89 -28 326 -27 522 2 338 12 443 81 825 5 25 16 74 25 110 9 36 20 83 24
105 17 81 80 301 100 348 12 27 21 55 21 62 0 65 306 725 355 765 9 7 24 32
34 55 11 24 39 70 62 102 39 51 106 148 134 192 6 9 13 18 16 21 3 3 18 24 33
48 14 23 30 42 35 42 6 0 13 9 16 20 4 11 20 35 37 53 16 17 55 63 85 100 65
81 437 457 452 457 10 0 33 18 166 130 36 30 78 62 93 70 15 9 43 30 62 48 19
17 39 32 45 32 5 0 35 18 65 39 46 34 115 77 200 126 10 6 25 17 34 24 19 16
70 45 106 60 14 6 32 15 40 21 40 26 270 134 333 157 40 14 90 33 112 43 128
56 421 147 615 190 19 4 69 15 110 25 41 9 102 21 135 25 33 5 87 14 120 20
93 16 238 32 375 40 155 10 558 3 631 -10z"/>
<path d="M4280 8438 c-80 -4 -203 -15 -275 -24 -71 -9 -149 -18 -172 -20 -56
-4 -290 -52 -311 -63 -9 -5 -39 -12 -67 -16 -27 -5 -74 -16 -104 -26 -30 -11
-64 -19 -75 -19 -12 0 -30 -6 -41 -13 -11 -8 -47 -22 -80 -32 -62 -18 -237
-85 -290 -110 -16 -8 -50 -22 -74 -30 -24 -8 -49 -19 -55 -24 -6 -5 -54 -31
-106 -57 -106 -53 -323 -183 -328 -196 -2 -4 -9 -8 -16 -8 -17 0 -166 -100
-166 -112 0 -4 -5 -8 -11 -8 -6 0 -27 -14 -47 -30 -20 -17 -66 -53 -102 -81
-36 -29 -86 -70 -111 -93 -26 -22 -70 -61 -98 -86 -99 -86 -294 -290 -401
-417 -80 -95 -290 -396 -343 -493 -17 -30 -44 -77 -59 -105 -36 -64 -178 -354
-178 -364 0 -7 -56 -149 -85 -216 -36 -85 -130 -416 -150 -534 -3 -19 -8 -38
-11 -42 -6 -10 -27 -163 -65 -474 -13 -112 -7 -635 10 -745 5 -36 15 -105 21
-155 14 -107 36 -231 55 -300 7 -27 24 -88 36 -135 46 -174 162 -506 213 -605
8 -17 35 -73 60 -125 98 -202 136 -269 275 -479 20 -30 41 -62 46 -71 30 -50
175 -237 195 -250 3 -3 11 -12 16 -21 12 -21 216 -240 273 -293 25 -23 81 -75
125 -118 78 -73 224 -194 276 -226 14 -9 43 -31 64 -49 22 -18 45 -33 51 -33
6 0 27 -13 45 -30 18 -16 37 -30 42 -30 5 0 39 -20 76 -44 74 -48 134 -83 202
-119 82 -43 264 -134 300 -149 126 -55 164 -69 235 -93 44 -14 87 -29 95 -34
8 -4 42 -16 75 -25 33 -9 67 -20 75 -23 19 -8 18 -8 60 -17 19 -4 49 -12 65
-17 86 -25 243 -59 340 -73 61 -9 137 -20 170 -26 177 -30 679 -40 865 -18 52
6 114 11 137 12 23 1 45 5 49 9 4 4 25 7 46 7 22 0 69 6 106 14 37 8 96 19
132 26 69 12 129 27 170 41 14 5 68 20 120 33 52 13 115 31 140 40 25 9 77 25
115 37 129 38 498 210 666 311 41 25 81 48 89 51 13 6 69 44 139 95 13 9 63
44 111 77 202 139 544 458 720 675 25 30 51 61 58 70 30 34 184 246 190 260 3
8 17 31 31 50 14 19 33 46 41 60 8 14 36 61 62 105 73 120 218 422 276 575 56
148 130 379 151 473 6 26 15 66 21 90 9 41 15 70 45 242 70 404 64 992 -15
1375 -5 25 -14 72 -21 105 -20 100 -116 436 -154 535 -38 101 -53 137 -73 183
-12 27 -22 50 -22 52 0 6 -69 156 -87 190 -9 17 -35 64 -58 105 -23 41 -55 98
-70 125 -15 28 -33 57 -41 65 -7 8 -17 26 -23 40 -20 46 -198 290 -291 399
-36 42 -78 94 -95 115 -82 106 -316 331 -501 483 -119 98 -255 192 -449 312
-197 122 -604 307 -795 361 -36 10 -83 25 -105 34 -22 8 -47 15 -56 16 -9 0
-42 9 -75 19 -32 11 -72 22 -89 25 -16 3 -55 12 -85 20 -30 8 -104 22 -165 31
-60 8 -129 20 -152 25 -104 24 -507 39 -733 28z m-2967 -2789 c14 -6 30 -22
36 -36 8 -16 11 -173 11 -503 l0 -480 265 0 265 0 0 489 c0 466 1 490 19 512
19 23 24 24 155 24 123 0 137 -2 156 -20 20 -20 20 -29 20 -1183 0 -778 -3
-1169 -10 -1182 -16 -30 -76 -42 -187 -38 -91 3 -104 6 -127 27 l-26 24 0 498
c0 311 -4 500 -10 504 -5 3 -123 6 -262 7 l-253 0 -5 -506 -5 -505 -23 -23
c-21 -22 -31 -23 -153 -23 l-131 0 -24 28 -24 28 0 1157 c1 1219 -1 1174 45
1200 26 15 236 16 268 1z m2106 -4 c33 -17 36 -25 62 -200 53 -348 71 -469 85
-570 8 -60 21 -146 29 -190 7 -44 19 -116 25 -160 16 -115 56 -385 84 -570 14
-88 30 -191 35 -230 6 -38 18 -115 27 -170 42 -275 42 -289 -14 -312 -55 -23
-272 -15 -300 11 -25 22 -35 66 -62 281 -12 88 -26 197 -32 243 l-11 82 -211
-2 -211 -3 -22 -160 c-42 -304 -56 -390 -64 -413 -15 -40 -69 -54 -190 -50
-153 4 -166 21 -139 183 6 33 15 89 20 125 5 36 23 155 40 265 17 110 39 261
50 335 11 74 29 196 40 270 12 74 34 225 51 335 16 110 36 245 44 300 9 55 29
192 46 305 36 247 43 275 72 295 31 22 504 22 546 0z m954 4 c14 -6 30 -22 36
-36 8 -17 11 -352 11 -1173 l0 -1149 -24 -28 -24 -28 -132 0 -132 0 -24 28
-24 28 0 1149 c0 823 3 1156 11 1174 6 13 21 29 33 34 29 14 239 15 269 1z
m1276 -4 c160 -38 292 -161 343 -318 18 -55 21 -89 21 -297 1 -268 -9 -328
-68 -417 -35 -52 -125 -133 -150 -133 -7 0 -18 -6 -24 -14 -9 -11 -5 -16 20
-26 51 -22 123 -84 156 -136 67 -105 70 -137 75 -696 2 -311 1 -339 -15 -355
-15 -15 -36 -18 -130 -18 -128 0 -164 11 -193 58 -18 30 -19 59 -24 432 -5
391 -5 401 -28 446 -23 47 -71 88 -125 108 -16 6 -105 11 -202 11 l-174 0 -3
-505 -3 -504 -23 -23 c-20 -20 -34 -23 -132 -26 -119 -5 -160 5 -185 42 -13
18 -15 179 -15 1176 1 1217 -1 1172 45 1198 33 19 752 16 834 -3z m1767 -8
c24 -21 28 -32 32 -105 7 -123 -3 -169 -41 -193 -29 -17 -52 -19 -224 -19
l-193 0 0 -1000 c0 -836 -2 -1006 -14 -1034 -20 -47 -62 -59 -193 -54 -100 3
-106 5 -129 31 l-24 28 0 1015 0 1014 -190 0 c-266 0 -270 3 -270 181 0 98 1
101 29 130 l29 29 581 0 580 0 27 -23z m595 -6 c18 -23 19 -56 19 -1182 l0
-1158 -24 -28 c-23 -27 -29 -28 -121 -31 -119 -5 -160 3 -191 33 l-24 24 0
1150 c0 824 3 1157 11 1175 18 39 45 46 182 43 122 -2 130 -3 148 -26z"/>
<path d="M3121 5253 c-21 -152 -60 -423 -81 -558 -62 -417 -72 -496 -66 -503
11 -10 316 -16 327 -5 7 7 -12 152 -121 930 -17 116 -30 214 -30 217 0 3 -4 6
-8 6 -5 0 -14 -39 -21 -87z"/>
<path d="M5138 5324 c-5 -4 -8 -162 -8 -351 l0 -344 203 3 204 3 37 29 c71 53
81 94 81 311 0 183 -1 192 -25 240 -16 31 -41 61 -68 80 l-43 29 -187 4 c-103
2 -190 1 -194 -4z"/>
</g>
</svg>
