<?xml version="1.0" encoding="utf-8"?><svg viewBox="0 0 1920 1920" xmlns="http://www.w3.org/2000/svg" xmlns:xlink="http://www.w3.org/1999/xlink"><style>:root>svg{display:none}:root>svg:target{display:block}</style><svg viewBox="0 0 512 512" id="arrow" xmlns="http://www.w3.org/2000/svg"><path d="M435.74 141.614L309.921 267.433V38.131H202.079v229.305L76.26 141.614 0 217.869l255.997 256 256.003-256z"/></svg><svg viewBox="0 0 7 12" id="arrowBtn" xmlns="http://www.w3.org/2000/svg"><path d="M1 1l5 5-5 5"/></svg><svg viewBox="0 0 32 32" id="bag" xmlns="http://www.w3.org/2000/svg"><g data-name="16. Money Bag"><path d="M28.84 24.18a23.4 23.4 0 00-7.44-12.54 3 3 0 00-1-5.6L22 1.32a1 1 0 00-.14-.9A1 1 0 0021 0H11a1 1 0 00-.81.42 1 1 0 00-.14.9L11.63 6a3 3 0 00-1 5.6 23.4 23.4 0 00-7.48 12.6A6.57 6.57 0 003 25.59 6.41 6.41 0 009.41 32h13.18A6.41 6.41 0 0029 25.59a6.29 6.29 0 00-.16-1.41zM19.61 2l-1.33 4h-4.56l-1.33-4zM12 8h8a1 1 0 010 2h-8a1 1 0 010-2zm10.59 22H9.41A4.42 4.42 0 015 25.59a4.82 4.82 0 01.11-1A21.45 21.45 0 0113.32 12h5.36a21.49 21.49 0 018.22 12.64 5 5 0 01.1.95A4.42 4.42 0 0122.59 30z"/><path d="M16 18h2a1 1 0 000-2h-1a1 1 0 00-2 0v.18A3 3 0 0016 22a1 1 0 010 2h-2a1 1 0 000 2h1a1 1 0 002 0v-.18A3 3 0 0016 20a1 1 0 010-2z"/></g></svg><svg viewBox="0 0 24 24" id="burger" xmlns="http://www.w3.org/2000/svg"><rect width="24" height="3" rx="1.5"/><rect y="21" width="24" height="3" rx="1.5"/><rect y="11" width="24" height="3" rx="1.5"/></svg><svg viewBox="0 0 24 24" id="burgerClose" xmlns="http://www.w3.org/2000/svg"><rect x="4.575" y="2.954" width="24" height="3" rx="1.5" transform="rotate(45 4.575 2.954)"/><rect x="21.546" y="5.075" width="24" height="3" rx="1.5" transform="rotate(135 21.546 5.075)"/></svg><svg viewBox="0 0 1920 1920" id="cup" xmlns="http://www.w3.org/2000/svg"><style>.fst0{fill:#fff}.fst1{fill:none;stroke:#231f20;stroke-width:50;stroke-linecap:round;stroke-linejoin:round;stroke-miterlimit:10}</style><path class="fst0" d="M1084.5 825s0 .1 0 0l-3.3 2.7c1.2-1.2 2.1-2 2.5-2.4-32.3 26.5-71.4 42.8-118.8 43.9h-9.4c-47.4-1.1-86.6-17.3-118.9-43.9-.1-.1-.2-.1-.2-.2-167.2-137.6-151.6-550-151.6-550H1236s15.6 412.3-151.5 549.9z" id="fLayer_10"/><path class="fst0" d="M1018.3 1048.3c2.5 36.6 8.4 98.8 22.3 144.3h-.1c-.3-.1-.6-.1-1-.2h-.2c-.3 0-.5-.1-.8-.1-1.5-.3-3-.5-4.5-.8-1.2-.2-2.4-.4-3.7-.6-.5-.1-1.1-.2-1.6-.2-1.4-.2-2.9-.4-4.3-.6-44.2-6.3-89.1-6.1-133.3.6l-1.8.3c-1.2.2-2.3.3-3.5.5-1.4.2-2.9.5-4.3.7-.3.1-.7.1-1 .2-.4.1-.9.2-1.3.2 13.8-45.6 19.8-107.8 22.3-144.4 2.2-32.4.4-64.9-5.9-96.8-16.9-86.4-55.9-123-59.5-126.3 32.5 26.6 71.8 42.9 119.4 43.9h9.4c46.1-.9 84.5-16.3 116.3-41.4-9.7 9.8-42 47.2-57 123.8-6.2 32-8.1 64.5-5.9 96.9z" id="fLayer_11"/><path class="fst0" d="M1175.2 1279.2H744.8c0-51.8 73.4-75.6 134.4-86.5.8-.1 1.5-.3 2.3-.4 2.6-.5 5.2-.9 7.8-1.3l1.8-.3c44.2-6.7 89.1-6.9 133.3-.6 1.4.2 2.9.4 4.3.6.5.1 1.1.2 1.6.2 2.7.4 5.4.9 8.2 1.3.3.1.6.1 1 .2.3.1.6.1 1 .2h.1c61.1 10.9 134.6 34.8 134.6 86.6z" id="fLayer_12"/><path class="fst0" d="M1341.7 1703.1H578.3l91-423.9h581.4z" id="fLayer_13"/><g id="fSTROKES"><path class="fst1" d="M1084.5 825s0 .1 0 0c-33.5 27.6-74.3 44.1-124.1 44.1-49.6 0-90.4-16.5-123.8-43.9-.1-.1-.2-.1-.2-.2-167.2-137.6-151.6-550-151.6-550H1236c0 .1 15.6 412.4-151.5 550z"/><path class="fst1" d="M1269.7 690.8s-6.4 52.8-46.6 52.8c-33.5 0-44.3-19.1-47.7-33.9-2.1-9.2.9-18.9 7.8-25.4 129.8-122 201.8-289 218.1-329.9 2.3-5.8 4.3-11.7 5.9-17.8 1.1-4.2 2.4-9 3-11.7 9.8-41.4-11.3-84.4-50.5-101-10.6-4.5-22.3-7-34.6-7-49.3 0-89.2 40.2-88.9 89.6.3 42.6 31 78.3 71.4 86.5m-695.2 0c40.3-8.1 71-43.8 71.4-86.5.4-49.4-39.6-89.6-88.9-89.6-12.3 0-24 2.5-34.6 7-39.2 16.6-60.3 59.5-50.5 101 .6 2.7 1.9 7.5 3 11.7 1.6 6 3.6 12 5.9 17.8 16.4 41 88.3 207.9 218.1 329.9 6.9 6.5 9.9 16.2 7.8 25.4-3.4 14.8-14.2 33.9-47.7 33.9-40.2 0-46.6-52.8-46.6-52.8m373.9 260.7c-6.2 31.8-8 64.4-5.9 96.8 2.5 36.6 8.4 98.8 22.3 144.4-.4-.1-.9-.2-1.3-.2-52.5-9.2-106.2-9.2-158.7 0-.4.1-.9.2-1.3.2 13.8-45.6 19.8-107.8 22.3-144.4 2.2-32.4.4-64.9-5.9-96.8-16.9-86.4-55.9-123-59.5-126.3 33.4 27.4 74.2 43.9 123.8 43.9 49.7 0 90.5-16.5 123.9-44-2.5 2.2-42.5 38.6-59.7 126.4z"/><path class="fst1" d="M1175.2 1279.2H744.8c0-51.8 73.4-75.6 134.4-86.5 2.2-.4 4.4-.8 6.6-1.1 49.1-8.1 99.1-8.1 148.2 0 2.2.4 4.4.7 6.6 1.1 61.1 10.8 134.6 34.7 134.6 86.5zm75.5 0H669.3l-91 423.9h763.4z"/></g></svg><svg viewBox="0 0 502.664 502.664" id="icon" xmlns="http://www.w3.org/2000/svg"><path d="M153.821 358.226L0 274.337v-46.463l153.821-83.414v54.574L46.636 250.523l107.185 53.431v54.272zm26.273 29.358L282.103 115.08h32.227L212.084 387.584h-31.99zm168.749-29.358v-54.272l107.164-52.999-107.164-52.59v-53.927l153.821 83.522v46.183l-153.821 84.083z"/></svg><svg viewBox="0 0 48 48" id="lightning" xmlns="http://www.w3.org/2000/svg"><path fill-opacity=".01" d="M0 0h48v48H0z"/><path d="M19 4h18L26 18h15L17 44l5-19H8L19 4z"/></svg><svg viewBox="0 0 612 612" id="star" xmlns="http://www.w3.org/2000/svg"><path d="M612 234.167L400.898 201.96 306 0l-94.898 201.96L0 234.167l152.713 156.366L116.567 612 306 507.387 495.434 612l-36.166-221.468L612 234.167zm-306 228.85l-142.08 79.655 27.119-160.727L68.716 257.078l165.45-21.516L306 82.467l71.184 153.096 164.896 23.39-121.12 123.585 25.322 160.727L306 463.017z"/></svg></svg>